<svg xmlns="http://www.w3.org/2000/svg" viewBox="0 0 512 512"><path d="m137.345 384.229 237.406-.137c11.805 0 22.896-4.587 31.231-12.915 8.318-8.312 12.886-19.351 12.86-31.071V173.248c0-23.152-18.202-42.408-41.438-43.838a5.715 5.715 0 0 0-.37-.012H137.249c-11.789 0-22.873 4.587-31.209 12.916-8.333 8.327-12.908 19.381-12.883 31.116v166.812c0 24.255 19.821 43.987 44.188 43.987zm91.021-172.393c6.537-8.192 17.054-13.082 28.132-13.082 16.767 0 31.787 10.054 37.375 25.018 6.009 16.097.486 34.178-13.128 44.294l.013 28.421c.003 6.129-2.389 11.893-6.736 16.229-4.347 4.336-10.128 6.724-16.276 6.724h-.012c-12.685 0-23.009-10.285-23.016-22.933l-.021-28.419c-7.913-5.859-13.331-14.529-15.05-24.248-1.966-11.123 1.13-22.489 8.719-32.004zm-64.92-98.649c4.136 0 7.5-3.354 7.5-7.478 0-46.734 38.155-84.755 85.054-84.755s85.054 38.021 85.054 84.755c0 4.123 3.364 7.478 7.5 7.478s7.5-3.354 7.5-7.478C356.054 50.729 311.17 6 256 6s-100.054 44.729-100.054 99.71c0 4.123 3.365 7.477 7.5 7.477zM108.6 461.73l-6.849-10.206-19.559 12.973.494-21.335H69.605l.432 21.274-19.312-13.096-6.663 10.268 21.841 12.973L44 487.431l6.725 10.207 19.374-12.912L69.605 506h13.142l-.678-21.827 19.744 13.403 6.848-10.145-22.15-12.911zM198.434 461.73l-6.849-10.206-19.558 12.973.494-21.335H159.44l.432 21.274-19.312-13.096-6.664 10.268 21.842 12.973-21.903 12.85 6.725 10.207 19.374-12.912L159.44 506h13.142l-.679-21.827 19.744 13.403 6.849-10.145-22.15-12.911zM288.269 461.73l-6.849-10.206-19.559 12.973.494-21.335h-13.08l.432 21.274-19.312-13.096-6.664 10.268 21.842 12.973-21.904 12.85 6.726 10.207 19.373-12.912-.493 21.274h13.142l-.679-21.827 19.744 13.403 6.849-10.145-22.151-12.911zM378.104 461.73l-6.849-10.206-19.559 12.973.494-21.335h-13.081l.432 21.274-19.312-13.096-6.663 10.268 21.841 12.973-21.903 12.85 6.725 10.207 19.374-12.912-.494 21.274h13.142l-.678-21.827 19.744 13.403 6.848-10.145-22.15-12.911zM468 487.431l-22.15-12.911 22.088-12.79-6.848-10.206-19.559 12.973.493-21.335h-13.08l.432 21.274-19.312-13.096-6.664 10.268 21.842 12.973-21.903 12.85 6.725 10.207 19.374-12.912-.494 21.274h13.142l-.679-21.827 19.744 13.403z"/></svg>